<svg width="128" height="128" viewBox="0 0 128 128" fill="none" xmlns="http://www.w3.org/2000/svg">
  <path fill-rule="evenodd" clip-rule="evenodd"
    d="M51 35L27 53L67 99L107 53L83 35L67 35H51ZM67 35L83 53L67 99L51 53L67 35Z" fill="#53D6FF" />
  <path
    d="M60.7593 36.6508C61.1187 36.2315 61.0701 35.6002 60.6508 35.2408C60.2315 34.8813 59.6002 34.9299 59.2408 35.3492L47.5401 49H30C29.4477 49 29 49.4477 29 50C29 50.5523 29.4477 51 30 51H47.2925L59.057 84.3328C59.2408 84.8536 59.812 85.1268 60.3328 84.943C60.8536 84.7592 61.1268 84.188 60.943 83.6672L49.4134 51H78.5866L67.057 83.6672C66.8732 84.188 67.1464 84.7592 67.6672 84.943C68.188 85.1268 68.7592 84.8536 68.943 84.3328L80.7075 51H98C98.5523 51 99 50.5523 99 50C99 49.4477 98.5523 49 98 49H80.4599L68.7592 35.3492C68.3998 34.9299 67.7685 34.8813 67.3492 35.2408C66.9299 35.6002 66.8813 36.2315 67.2407 36.6508L77.8258 49H50.1743L60.7593 36.6508Z"
    fill="black" />
  <path fill-rule="evenodd" clip-rule="evenodd"
    d="M22.0112 49.7888C22.0698 49.2364 22.3556 48.7333 22.8 48.4L46.8 30.4C47.1462 30.1404 47.5673 30 48 30L80 30C80.4327 30 80.8538 30.1404 81.2 30.4L105.2 48.4C105.644 48.7333 105.93 49.2364 105.989 49.7888C106.047 50.3412 105.874 50.8932 105.509 51.3124L65.5092 97.3124C65.1294 97.7492 64.5789 98 64 98C63.4211 98 62.8706 97.7492 62.4908 97.3124L22.4908 51.3124C22.1263 50.8932 21.9525 50.3413 22.0112 49.7888ZM24 50L64 96L104 50L80 32L48 32L24 50Z"
    fill="black" />
</svg>